<svg width="119" height="40" viewBox="0 0 119 20" fill="none" xmlns="http://www.w3.org/2000/svg">
<mask id="mask0_106_499" style="mask-type:luminance" maskUnits="userSpaceOnUse" x="0" y="0" width="119" height="20">
<path d="M118.541 0H0.663574V20H118.541V0Z" fill="white"/>
</mask>
<g mask="url(#mask0_106_499)">
<mask id="mask1_106_499" style="mask-type:luminance" maskUnits="userSpaceOnUse" x="0" y="0" width="119" height="20">
<path d="M118.541 0H0.663574V20H118.541V0Z" fill="white"/>
</mask>
<g mask="url(#mask1_106_499)">
<path d="M46.8867 2.18802C46.8867 1.20034 47.6879 0.394531 48.6802 0.394531C49.6679 0.394531 50.4737 1.19573 50.4737 2.18802C50.4392 3.1757 49.6057 3.94697 48.6157 3.91243C47.6764 3.8779 46.9236 3.12505 46.8867 2.18802Z" fill="#191825" fill-opacity="0.5"/>
</g>
<mask id="mask2_106_499" style="mask-type:luminance" maskUnits="userSpaceOnUse" x="0" y="0" width="119" height="20">
<path d="M118.541 0H0.663574V20H118.541V0Z" fill="white"/>
</mask>
<g mask="url(#mask2_106_499)">
<path d="M75.1519 14.1379C75.1519 13.1433 75.953 12.3398 76.9384 12.3398C77.9307 12.3398 78.7342 13.1433 78.7342 14.1379C78.7342 15.1302 77.9307 15.9337 76.9384 15.9337C75.953 15.9337 75.1519 15.1279 75.1519 14.1379Z" fill="#191825" fill-opacity="0.5"/>
</g>
<mask id="mask3_106_499" style="mask-type:luminance" maskUnits="userSpaceOnUse" x="0" y="0" width="119" height="20">
<path d="M118.541 0H0.663574V20H118.541V0Z" fill="white"/>
</mask>
<g mask="url(#mask3_106_499)">
<path d="M17.4932 13.3585C15.953 13.3585 14.8778 12.1337 14.8778 10.3816C14.8778 8.63191 15.9507 7.40709 17.4932 7.40709C19.0427 7.40709 20.1293 8.63191 20.1293 10.3816C20.127 12.1613 19.068 13.3585 17.4932 13.3585ZM17.4932 4.79169C14.2309 4.79169 11.8618 7.14233 11.8618 10.3816C11.8618 13.621 14.2332 15.9716 17.4932 15.9716C20.7717 15.9716 23.1476 13.621 23.1476 10.384C23.1476 7.14233 20.7671 4.79169 17.4932 4.79169ZM43.4193 10.6625C43.3065 10.4438 43.1615 10.2389 42.9934 10.0593L42.8944 9.95572L42.998 9.85673C43.1476 9.69787 43.3019 9.51138 43.4469 9.29497L46.3271 5.01271H42.8299L40.6658 8.36254C40.5438 8.54442 40.2974 8.62961 39.9267 8.62961H39.4318V2.296C39.4318 1.02974 38.6444 0.859375 37.7902 0.859375H36.3306L36.3329 15.8058H39.4294V11.3256H39.7195C40.0718 11.3256 40.3112 11.367 40.424 11.5581L42.1323 14.7836C42.6112 15.6585 43.0855 15.8082 43.9788 15.8082H46.3593L44.5889 12.8865L43.4193 10.6625ZM58.4625 4.76866C56.8854 4.76866 55.8793 5.46856 55.3176 6.06255L55.1311 6.25364L55.0643 5.99579C54.8985 5.36035 54.3414 5.01501 53.501 5.01501H52.1128L52.122 15.8082H55.2001V10.8352C55.2001 10.3471 55.2623 9.9281 55.3912 9.54131C55.7343 8.37635 56.6897 7.64883 57.8823 7.64883C58.8424 7.64883 59.2199 8.15533 59.2199 9.46764V14.1689C59.2199 15.2855 59.7357 15.8104 60.8569 15.8104H62.3188L62.3119 8.94502C62.3119 6.2076 60.9789 4.76866 58.4625 4.76866ZM48.7192 5.01271H47.2595L47.2687 13.3585V15.8058H48.8251L48.8804 15.8082L49.6079 15.8058H50.3285V15.8035H50.3354L50.3423 6.65424C50.3377 5.54914 49.8105 5.01271 48.7192 5.01271ZM29.5779 13.3585C28.0377 13.3585 26.9625 12.1337 26.9625 10.3816C26.9625 8.63191 28.0377 7.40709 29.5779 7.40709C31.1251 7.40709 32.2141 8.63191 32.2141 10.3816C32.2118 12.1613 31.1527 13.3585 29.5779 13.3585ZM29.5779 4.79169C26.3133 4.79169 23.9419 7.14233 23.9419 10.3816C23.9419 13.621 26.3133 15.9716 29.5779 15.9716C32.8495 15.9716 35.2324 13.621 35.2324 10.384C35.2324 7.14233 32.8518 4.79169 29.5779 4.79169Z" fill="#191825" fill-opacity="0.5"/>
</g>
</g>
<mask id="mask4_106_499" style="mask-type:luminance" maskUnits="userSpaceOnUse" x="0" y="0" width="119" height="20">
<path d="M118.541 0H0.663574V20H118.541V0Z" fill="white"/>
</mask>
<g mask="url(#mask4_106_499)">
<mask id="mask5_106_499" style="mask-type:luminance" maskUnits="userSpaceOnUse" x="0" y="0" width="119" height="20">
<path d="M118.516 0.394531H0.663574V19.9755H118.516V0.394531Z" fill="white"/>
</mask>
<g mask="url(#mask5_106_499)">
<mask id="mask6_106_499" style="mask-type:luminance" maskUnits="userSpaceOnUse" x="0" y="0" width="119" height="20">
<path d="M118.541 0H0.663574V20H118.541V0Z" fill="white"/>
</mask>
<g mask="url(#mask6_106_499)">
<path d="M95.534 13.3598C93.9937 13.3598 92.9186 12.135 92.9186 10.3829C92.9186 8.63319 93.9937 7.40837 95.534 7.40837C97.0834 7.40837 98.1701 8.63319 98.1701 10.3829C98.1701 12.1626 97.1087 13.3598 95.534 13.3598ZM95.534 4.79297C92.2693 4.79297 89.8979 7.14361 89.8979 10.3829C89.8979 13.6223 92.2647 15.9729 95.534 15.9729C98.8078 15.9729 101.188 13.6223 101.188 10.3852C101.188 7.14361 98.8055 4.79297 95.534 4.79297Z" fill="#191825" fill-opacity="0.5"/>
</g>
<mask id="mask7_106_499" style="mask-type:luminance" maskUnits="userSpaceOnUse" x="0" y="0" width="119" height="20">
<path d="M118.541 0H0.663574V20H118.541V0Z" fill="white"/>
</mask>
<g mask="url(#mask7_106_499)">
<path d="M68.7973 12.8824C67.1143 12.8824 66.518 11.4158 66.518 10.0414C66.518 9.43356 66.6723 7.4605 68.6408 7.4605C69.6169 7.4605 70.9177 7.74138 70.9177 10.1404C70.9154 12.4081 69.762 12.8824 68.7973 12.8824ZM72.5132 4.98784C71.9284 4.98784 71.4795 5.22037 71.2538 5.64629L71.171 5.81206L71.0282 5.68543C70.5309 5.2549 69.6399 4.74609 68.1964 4.74609C65.3185 4.74609 63.3823 6.90564 63.3823 10.1242C63.3823 13.3382 65.3876 15.583 68.2563 15.583C69.2347 15.583 70.0106 15.3527 70.623 14.8877L70.8579 14.7104V15.0097C70.8579 16.4532 69.9254 17.2475 68.2355 17.2475C67.4113 17.2475 66.6654 17.0472 66.1658 16.8654C65.5142 16.6674 65.1298 16.8331 64.8673 17.4847L64.621 18.0879L64.2756 18.9697L64.4897 19.0825C65.5718 19.658 66.9808 19.9988 68.2517 19.9988C70.8717 19.9988 73.9314 18.6588 73.9314 14.8831L73.9406 4.98093H72.5132" fill="#191825" fill-opacity="0.5"/>
</g>
</g>
</g>
<mask id="mask8_106_499" style="mask-type:luminance" maskUnits="userSpaceOnUse" x="0" y="0" width="119" height="20">
<path d="M118.541 0H0.663574V20H118.541V0Z" fill="white"/>
</mask>
<g mask="url(#mask8_106_499)">
<mask id="mask9_106_499" style="mask-type:luminance" maskUnits="userSpaceOnUse" x="0" y="0" width="119" height="20">
<path d="M118.541 0H0.663574V20H118.541V0Z" fill="white"/>
</mask>
<g mask="url(#mask9_106_499)">
<path d="M6.03482 13.2351L3.52762 13.2328V10.2398C3.52762 9.59747 3.77627 9.26825 4.32191 9.18997H6.03021C7.24813 9.18997 8.03551 9.95893 8.04011 11.2022C8.04011 12.4799 7.27115 13.2351 6.03482 13.2351ZM3.52762 5.15866V4.37127C3.52762 3.68058 3.81771 3.35366 4.46005 3.31222H5.74243C6.84062 3.31222 7.49908 3.97067 7.49908 5.07117C7.49908 5.91151 7.04783 6.88998 5.78157 6.88998H3.52762V5.15866ZM9.2304 8.14703L8.77915 7.89148L9.17284 7.55304C9.6356 7.15935 10.4023 6.26836 10.4023 4.73273C10.4023 2.38209 8.58115 0.867188 5.76085 0.867188H2.17848C1.34275 0.897117 0.672783 1.5809 0.663574 2.41663V15.7515H5.82761C8.96333 15.7515 10.9847 14.0455 10.9847 11.4025C10.9847 9.98425 10.3286 8.76635 9.2304 8.14703Z" fill="#191825" fill-opacity="0.5"/>
</g>
<mask id="mask10_106_499" style="mask-type:luminance" maskUnits="userSpaceOnUse" x="0" y="0" width="119" height="20">
<path d="M118.541 0H0.663574V20H118.541V0Z" fill="white"/>
</mask>
<g mask="url(#mask10_106_499)">
<path d="M114.933 4.80308C113.649 4.80538 112.431 5.39707 111.629 6.40548L111.406 6.68636L111.231 6.37095C110.66 5.33031 109.682 4.80539 108.314 4.80539C106.884 4.80539 105.924 5.60198 105.478 6.07855L105.188 6.39397L105.075 5.97725C104.914 5.37866 104.38 5.04943 103.574 5.04943H102.28L102.266 15.8011H105.204V11.0538C105.204 10.6371 105.254 10.2273 105.358 9.79675C105.639 8.65021 106.41 7.41618 107.706 7.5382C108.503 7.61648 108.894 8.2335 108.894 9.42378V15.7988H111.853V11.0515C111.853 10.5312 111.901 10.1398 112.019 9.75301C112.253 8.65712 113.061 7.5336 114.312 7.5336C115.216 7.5336 115.553 8.04471 115.553 9.42378V14.2264C115.553 15.3107 116.036 15.7988 117.123 15.7988H118.504L118.506 8.9357C118.516 6.19137 117.307 4.80308 114.933 4.80308ZM88.1967 12.0668C88.1875 12.076 86.9235 13.4114 85.259 13.4114C83.7418 13.4114 82.2108 12.4812 82.2108 10.4046C82.2108 8.61108 83.3987 7.35633 85.1001 7.35633C85.6527 7.35633 86.2789 7.55432 86.3779 7.88585L86.3917 7.94111C86.5206 8.41308 86.9512 8.7377 87.4369 8.7354L89.0463 8.7377V7.3287C89.0463 5.47075 86.6864 4.80078 85.0955 4.80078C81.6973 4.80078 79.2339 7.16523 79.2339 10.423C79.2339 13.6784 81.672 16.0429 85.0334 16.0429C87.9504 16.0429 89.5343 14.1251 89.5505 14.1089L89.6333 14.0053L88.3579 11.8895L88.1967 12.0668Z" fill="#191825" fill-opacity="0.5"/>
</g>
</g>
</svg>
