<svg width="71" height="40" viewBox="0 0 71 20" fill="none" xmlns="http://www.w3.org/2000/svg">
<path d="M33.9635 15.6465H31.7666C31.7527 15.6465 31.7527 15.6465 31.7457 15.6395L29.8548 13.3314L27.9638 15.6395C27.9568 15.6465 27.9499 15.6465 27.9429 15.6465H26.1841C26.1702 15.6465 26.1632 15.6395 26.1562 15.6326C26.1562 15.6256 26.1563 15.6117 26.1632 15.6048L28.951 12.1843L26.198 8.79866C26.191 8.78476 26.191 8.77781 26.191 8.7639C26.198 8.75695 26.2049 8.75 26.2119 8.75H28.4087C28.4157 8.75 28.4226 8.75695 28.4296 8.7639L30.0911 10.8217L31.7805 8.7639C31.7874 8.75695 31.7944 8.75 31.8014 8.75H33.588C33.595 8.75 33.6089 8.75695 33.6158 8.7639C33.6228 8.77781 33.6158 8.78476 33.6089 8.79866L31.0019 11.9341L33.9913 15.6048C33.9982 15.6117 33.9982 15.6256 33.9982 15.6326C33.9843 15.6465 33.9774 15.6465 33.9635 15.6465Z" fill="#191825" fill-opacity="0.5"/>
<path d="M45.8446 9.95954C44.8713 9.95954 44.2109 10.5505 44.0162 11.5724H47.3254V11.5029C47.3254 10.6895 46.7206 9.95954 45.8446 9.95954ZM49.0287 12.6291C49.0217 12.6361 49.0148 12.6431 49.0078 12.6431H43.9814C44.0857 13.811 44.8435 14.4784 46.074 14.4784C46.8318 14.4784 47.6382 14.2212 48.7714 13.6163C48.7923 13.6024 48.8131 13.6233 48.8131 13.6442V15.1875C48.8131 15.2014 48.8062 15.2084 48.7992 15.2084C47.7425 15.6533 46.6789 15.9592 45.8446 15.9592C43.6825 15.9592 42.1113 14.3811 42.1113 12.212C42.1113 10.043 43.6825 8.46484 45.8446 8.46484C47.819 8.46484 49.0843 9.79269 49.0843 11.6211C49.0843 11.92 49.0356 12.6083 49.0287 12.6291Z" fill="#191825" fill-opacity="0.5"/>
<path d="M59.234 7.31756C58.6153 7.31756 58.1147 6.82396 58.1147 6.21913C58.1147 5.59344 58.6153 5.08594 59.234 5.08594C59.8528 5.08594 60.3533 5.59344 60.3533 6.21913C60.3533 6.82396 59.8528 7.31756 59.234 7.31756ZM58.3303 15.6462C58.3094 15.6462 58.3025 15.6392 58.3025 15.6184V8.77055C58.3025 8.75664 58.3094 8.74274 58.3233 8.74274H60.1378C60.1517 8.74274 60.1587 8.75664 60.1587 8.77055V15.6184C60.1587 15.6392 60.1448 15.6462 60.1309 15.6462H58.3303Z" fill="#191825" fill-opacity="0.5"/>
<path d="M37.2865 14.6174C36.9597 14.6174 36.626 14.5688 36.2367 14.4715L36.2437 10.0777C36.6955 9.93174 37.0849 9.86917 37.4742 9.86917C38.7325 9.86917 39.5737 10.7938 39.5737 12.1773C39.5737 13.6581 38.6769 14.6174 37.2865 14.6174ZM37.7801 8.46484C37.2656 8.46484 36.7512 8.55522 36.2089 8.74293H34.4013C34.3874 8.74293 34.3735 8.75683 34.3735 8.77074V19.9984C34.9158 19.9219 35.5832 19.7272 36.2367 19.2684V15.8549C36.6816 15.9175 37.0501 15.9592 37.4046 15.9592C39.8796 15.9592 41.4786 14.4784 41.4786 12.1842C41.4786 9.9943 39.9561 8.46484 37.7801 8.46484Z" fill="#191825" fill-opacity="0.5"/>
<path d="M55.028 14.0501C54.4649 14.3491 53.9574 14.4881 53.4846 14.4881C52.3654 14.4881 51.691 13.6956 51.691 12.3677C51.691 10.8383 52.5461 9.84411 53.874 9.84411C54.2424 9.84411 54.597 9.93449 55.028 10.1291V14.0501ZM55.028 5.12364V8.70397C54.4997 8.55102 54.0339 8.4815 53.5611 8.4815C51.406 8.4815 49.7861 10.1013 49.7861 12.2565C49.7861 14.3977 51.2183 15.955 53.1927 15.955C53.874 15.955 54.5136 15.7812 55.2644 15.3988V16.0176C55.758 15.9202 56.3281 15.7256 56.8912 15.3224V4.38672C56.342 4.46319 55.6885 4.6509 55.028 5.12364Z" fill="#191825" fill-opacity="0.5"/>
<path d="M66.4509 14.0352C65.9016 14.348 65.4359 14.501 65.0187 14.501C63.816 14.501 63.1 13.7084 63.1 12.3806C63.1 10.872 63.9481 9.85698 65.2064 9.85698C65.5401 9.85698 65.9503 9.98907 66.4509 10.2533V14.0352ZM68.314 8.66122C68.314 8.61951 68.2793 8.58475 68.2375 8.58475H66.7707C66.7289 8.58475 66.6872 8.61951 66.6872 8.66122V8.9115H66.6525C65.9781 8.61256 65.3941 8.48047 64.831 8.48047C62.801 8.48047 61.209 10.1629 61.209 12.318C61.209 14.494 62.6342 15.954 64.7546 15.954C65.3177 15.954 66.0476 15.9123 66.7289 15.1336V16.0165C67.2086 15.9123 67.7787 15.7106 68.314 15.3213V8.66122Z" fill="#191825" fill-opacity="0.5"/>
<path d="M21.1646 13.9396H25.7182C25.6487 14.4471 25.4749 15.0449 25.0856 15.6498H20.3512C19.7742 15.6498 19.2945 15.1979 19.2389 14.6348C19.2389 14.6278 19.2319 14.6209 19.2319 14.607V5.62485C19.2319 5.61789 19.2389 5.61094 19.2389 5.60399C19.2945 5.03392 19.7742 4.58203 20.3512 4.58203H25.7113C25.6418 5.08953 25.468 5.70132 25.0717 6.30615H21.1646V8.75329H25.0369C25.0508 8.75329 25.0647 8.76719 25.0647 8.7811V10.4774C25.0647 10.4913 25.0508 10.5052 25.0369 10.5052H21.1646V13.9396Z" fill="#191825" fill-opacity="0.5"/>
<path d="M15.464 15.7952C15.0121 15.7952 14.734 15.4407 14.734 15.0096C14.734 14.5508 15.0538 14.2241 15.464 14.2241C15.8672 14.2241 16.187 14.5438 16.187 15.0096C16.187 15.4754 15.8672 15.7952 15.464 15.7952ZM15.464 14.1406C15.0052 14.1406 14.6089 14.4882 14.6089 15.0096C14.6089 15.5032 14.9634 15.8786 15.464 15.8786C15.9159 15.8786 16.3122 15.531 16.3122 15.0096C16.3122 14.4882 15.9228 14.1406 15.464 14.1406Z" fill="#191825" fill-opacity="0.5"/>
<path d="M15.2619 14.9402V14.6204H15.4775C15.5887 14.6204 15.7138 14.6343 15.7138 14.7664C15.7138 14.9263 15.5956 14.9332 15.4636 14.9332C15.4566 14.9402 15.2619 14.9402 15.2619 14.9402ZM15.8668 14.7872C15.8668 14.5787 15.7416 14.4883 15.4914 14.4883H15.1021V15.5172H15.2689V15.0792H15.4288L15.693 15.5172H15.8876L15.6026 15.0653C15.7555 15.0514 15.8668 14.9749 15.8668 14.7872Z" fill="#191825" fill-opacity="0.5"/>
<path d="M69.8156 9.88593C69.3637 9.88593 69.0856 9.53137 69.0856 9.10034C69.0856 8.6415 69.4054 8.31475 69.8156 8.31475C70.2188 8.31475 70.5386 8.63455 70.5386 9.10034C70.5386 9.56613 70.2188 9.88593 69.8156 9.88593ZM69.8156 8.23828C69.3567 8.23828 68.9604 8.58589 68.9604 9.10729C68.9604 9.60089 69.315 9.9763 69.8156 9.9763C70.2674 9.9763 70.6637 9.6287 70.6637 9.10729C70.6637 8.57893 70.2674 8.23828 69.8156 8.23828Z" fill="#191825" fill-opacity="0.5"/>
<path d="M69.607 9.03087V8.71803H69.8226C69.9338 8.71803 70.0589 8.73193 70.0589 8.86402C70.0589 9.02392 69.9408 9.03087 69.8087 9.03087H69.607ZM70.2188 8.88488C70.2188 8.67631 70.0937 8.58594 69.8434 8.58594H69.4541V9.61485H69.621V9.17687H69.7809L70.045 9.61485H70.2397L69.9547 9.16296C70.1006 9.14906 70.2188 9.07258 70.2188 8.88488Z" fill="#191825" fill-opacity="0.5"/>
<path d="M9.58935 6.29742L9.2626 5.36584L6.45396 1.61866L6.95451 1.49352L11.7862 5.67173L14.6296 4.85833C14.9633 4.77491 15.3457 4.75405 15.6307 4.75405C14.7409 2.82832 13.1002 1.24324 10.945 0.478514C6.68338 -1.04399 1.99071 1.18763 0.475158 5.45621C0.00241602 6.77711 -0.101865 8.13972 0.0927932 9.43281L6.89889 7.0691L9.58935 6.29742Z" fill="#191825" fill-opacity="0.5"/>
<path d="M15.9364 5.49219C15.6861 5.65209 15.3177 5.8676 14.9562 5.98579L12.1058 6.79918L10.2079 12.9031L9.71429 13.063L10.1175 8.40511L9.89504 7.43877L7.22544 8.2035L0.162109 9.85115C0.725229 12.5625 2.64401 14.9331 5.4457 15.9273C9.71429 17.4498 14.4 15.2182 15.9225 10.9496C16.576 9.12118 16.5343 7.2024 15.9364 5.49219Z" fill="#191825" fill-opacity="0.5"/>
<path d="M9.88839 7.43232L10.1109 8.39866L9.70763 13.0566L10.2012 12.8967L12.0992 6.79273L14.9495 5.97933C15.311 5.86115 15.6795 5.65259 15.9298 5.48574C15.8394 5.23546 15.7421 4.99214 15.6308 4.74881C15.3388 4.74881 14.9634 4.76272 14.6297 4.8531L11.7863 5.66649L6.95461 1.48828L6.45406 1.61342L9.25575 5.3606L9.5825 6.29218L6.89204 7.06386L0.0859375 9.42757C0.106794 9.56662 0.134602 9.71261 0.162411 9.85165L7.21879 8.1901L9.88839 7.43232Z" fill="white"/>
</svg>
