<svg width="109" height="40" viewBox="0 0 109 20" fill="none" xmlns="http://www.w3.org/2000/svg">
<path d="M62.4628 19.4645L70.778 0.646722C70.9094 0.361172 70.7552 0.115599 70.4354 0.115599H64.6102C64.4396 0.125286 64.2746 0.180088 64.1321 0.274406C63.9896 0.368723 63.8748 0.499176 63.7992 0.652433L55.5868 19.4645C55.4669 19.7557 55.621 19.9956 55.9352 19.9956H61.6519C61.9717 19.9956 62.3372 19.7557 62.4628 19.4645ZM92.28 14.3988L105.187 0.12131H90.0927L86.6775 5.62101H92.5998L79.4816 20.0013H95.4553L101.406 14.3988H92.28ZM37.0432 0.115599H27.0489C26.7526 0.132769 26.4661 0.2279 26.2184 0.391366C25.9707 0.554832 25.7706 0.780831 25.6383 1.04649L17.7742 19.0704C17.5458 19.5844 17.8256 20.0013 18.3853 20.0013H23.3368C23.8964 20.0013 24.5361 19.5844 24.7531 19.0761L26.9975 13.9648H29.3219C30.0472 13.9191 30.3556 14.1875 29.9558 15.027L28.2311 19.0704C28.0141 19.5844 28.2882 20.0013 28.8479 20.0013H33.7993C34.0967 19.9857 34.3847 19.8913 34.6336 19.7277C34.8824 19.5641 35.0833 19.3373 35.2156 19.0704L37.4658 13.8677C38.1739 12.1772 37.1517 10.8694 35.6668 10.8009C36.9803 10.3269 38.1911 9.01905 38.7336 7.83116L39.8987 5.08988C41.3036 1.90314 40.3041 0.075622 37.0432 0.12131M34.1306 5.80376L32.897 8.51648C32.6114 9.16754 32.2002 9.21894 31.789 9.2018H29.0078L30.8696 4.97566H33.5366C34.1877 5.01564 34.3533 5.24979 34.1306 5.80376ZM56.4948 0.109888H45.9066C45.6946 0.120939 45.4893 0.188093 45.3117 0.304486C45.1341 0.420879 44.9906 0.582339 44.8958 0.772364L36.7919 19.3331C36.6377 19.6986 36.8261 19.9899 37.2259 19.9899H48.5623C52.1545 19.9385 54.2161 19.1447 55.8552 15.3411L57.0202 12.8054C57.934 10.6353 57.0374 9.69295 55.3241 9.41882C56.7518 8.97907 57.8255 7.63699 58.2881 6.45481L59.2361 4.44454C60.4012 1.76037 59.4303 0.075622 56.4891 0.109888M51.2978 12.5599L50.5782 14.0048C50.2184 15.0099 49.5902 15.284 48.705 15.2954H45.3926L46.9803 11.5547H50.2927C51.2293 11.6233 51.5948 11.8517 51.2978 12.5599ZM53.1996 5.90084L52.7027 7.04304L52.6285 7.19153C52.546 7.42979 52.387 7.63406 52.1762 7.77249C51.9655 7.91092 51.7149 7.97572 51.4634 7.9568H48.5908L49.9043 4.92997H52.8341C53.3595 4.96424 53.4452 5.3069 53.1996 5.90084ZM72.6113 0.115599L70.1498 5.62101H73.6621C73.902 5.62101 74.0162 5.79233 73.9191 6.01506L67.7798 19.6072C67.677 19.8243 67.7969 20.0013 68.0368 20.0013H74.2903C74.5302 20.0013 74.8043 19.8243 74.9014 19.6015L80.7951 6.01506C80.8516 5.90078 80.9374 5.80355 81.0438 5.73331C81.1501 5.66307 81.2732 5.62234 81.4005 5.61529H85.0042L88.3965 0.115599H72.6113ZM20.7268 6.88885L21.5035 5.19268C23.0683 1.61759 22.0347 0.081333 18.9621 0.12131H11.5664C8.52242 0.081333 5.98674 1.79463 4.58183 4.98137L2.29743 11.4348H0.138672L4.26773 17.0087L11.0924 11.4348H9.35623L11.3608 6.78034C11.6863 6.01506 12.246 5.64956 12.8457 5.62101H14.0107C14.2848 5.63243 14.4733 5.71809 14.5818 5.83802L18.2026 2.79406L20.7268 6.88885Z" fill="#191825" fill-opacity="0.5"/>
<path d="M4.11383 18.6464L1.07558 14.7972L0.915667 15.1399C-0.49495 18.3495 -0.260799 19.9485 2.78316 19.9942H10.0818C13.1029 19.9485 15.7471 18.3495 17.1635 15.1399L19.3336 10.1656H21.2754L17.963 4.58594L11.1955 10.1656H13.0515L11.6809 13.3352C11.3497 14.0091 10.8471 14.3746 10.3103 14.3974H9.33939L4.11383 18.6464Z" fill="#191825" fill-opacity="0.5"/>
<path d="M107.591 7.59837e-05C107.86 7.59837e-05 108.088 0.097163 108.277 0.285626C108.465 0.474089 108.562 0.702529 108.562 0.970946C108.562 1.23365 108.465 1.46209 108.277 1.65627C108.088 1.85044 107.86 1.94182 107.591 1.94182C107.464 1.94378 107.337 1.91944 107.219 1.87032C107.101 1.82119 106.995 1.74833 106.906 1.65627C106.718 1.46209 106.621 1.23365 106.621 0.970946C106.621 0.70824 106.718 0.468378 106.906 0.285626C106.995 0.193833 107.101 0.121151 107.219 0.0720465C107.337 0.0229414 107.464 -0.00155019 107.591 7.59837e-05ZM107.591 1.75906C107.696 1.76143 107.8 1.7424 107.898 1.70312C107.995 1.66384 108.083 1.60515 108.157 1.53062C108.232 1.45707 108.291 1.36893 108.33 1.27167C108.369 1.1744 108.388 1.0701 108.385 0.965235C108.387 0.861323 108.368 0.758108 108.329 0.661884C108.289 0.565661 108.231 0.478446 108.157 0.405557C108.083 0.330762 107.995 0.271888 107.898 0.23259C107.801 0.193292 107.696 0.17441 107.591 0.177117C107.488 0.174857 107.384 0.193967 107.288 0.233261C107.192 0.272556 107.104 0.331198 107.032 0.405557C106.878 0.559754 106.803 0.748217 106.803 0.965235C106.803 1.18225 106.878 1.37643 107.032 1.53062C107.186 1.68482 107.374 1.75906 107.591 1.75906ZM108.088 1.48494H107.86L107.574 1.07374H107.454V1.48494H107.249V0.439823H107.574C107.689 0.439823 107.78 0.468378 107.848 0.519777C107.917 0.576887 107.957 0.65113 107.957 0.748217C107.957 0.873859 107.888 0.970946 107.757 1.02235L108.088 1.48494ZM107.46 0.902414H107.569C107.7 0.902414 107.763 0.851015 107.763 0.753928C107.763 0.656841 107.706 0.611153 107.574 0.611153H107.46V0.902414Z" fill="#191825" fill-opacity="0.5"/>
</svg>
